<?xml version="1.0" standalone="no"?>
<!DOCTYPE svg PUBLIC "-//W3C//DTD SVG 20010904//EN"
 "http://www.w3.org/TR/2001/REC-SVG-20010904/DTD/svg10.dtd">
<svg version="1.0" xmlns="http://www.w3.org/2000/svg"
 width="272.000000pt" height="282.000000pt" viewBox="0 0 272.000000 282.000000"
 preserveAspectRatio="xMidYMid meet">
<metadata>
Created by potrace 1.16, written by Peter Selinger 2001-2019
</metadata>
<g transform="translate(0.000000,282.000000) scale(0.100000,-0.100000)"
fill="#424851" stroke="none">
<path d="M1835 2804 c-68 -54 -249 -107 -440 -129 -208 -24 -401 -72 -508
-126 -165 -84 -302 -236 -452 -503 -99 -176 -237 -284 -375 -294 l-60 -4 0
-549 0 -548 78 -56 c93 -66 392 -219 516 -263 124 -45 251 -66 354 -57 107 8
222 38 286 73 28 16 73 36 99 46 61 23 137 83 175 138 56 82 79 162 87 293 11
208 33 372 61 453 79 231 227 408 485 578 152 99 301 240 382 360 27 40 80
147 122 248 74 176 75 178 75 267 l0 89 -432 0 c-380 -1 -435 -3 -453 -16z"/>
</g>
</svg>
