<?xml version="1.0" standalone="no"?>
<!DOCTYPE svg PUBLIC "-//W3C//DTD SVG 20010904//EN"
 "http://www.w3.org/TR/2001/REC-SVG-20010904/DTD/svg10.dtd">
<svg version="1.0" xmlns="http://www.w3.org/2000/svg"
 width="272.000000pt" height="410.000000pt" viewBox="0 0 272.000000 410.000000"
 preserveAspectRatio="xMidYMid meet">
<metadata>
Created by potrace 1.16, written by Peter Selinger 2001-2019
</metadata>
<g transform="translate(0.000000,410.000000) scale(0.100000,-0.100000)"
fill="#59C0E6" stroke="none">
<path d="M2644 4043 c-328 -269 -853 -478 -1289 -512 -507 -39 -956 -236
-1272 -558 l-83 -84 0 -1444 0 -1445 614 0 614 0 7 47 c4 26 22 95 41 152 55
168 155 340 283 488 81 94 279 274 341 310 274 161 568 404 745 615 l75 89 0
1199 c0 660 -2 1200 -4 1200 -2 0 -34 -25 -72 -57z"/>
</g>
</svg>
